ply
format ascii 1.0
element vertex 468
property float x
property float y
property float z
end_header
0.000000 -3.478071 6.527450
0.000000 -1.126865 7.475604
0.000000 -2.176632 6.120576
-0.463928 0.955357 6.633583
0.000000 -0.463170 7.586580
0.000000 0.365669 7.242870
0.000000 2.473255 5.788627
-4.253081 2.577646 3.279702
0.000000 4.019042 5.284764
0.000000 4.885979 5.385258
0.000000 8.261778 4.481535
0.000000 -3.825655 6.548817
0.000000 -4.171205 6.399741
0.000000 -4.226121 6.243671
0.000000 -4.346080 6.240007
0.000000 -4.641543 6.371046
0.000000 -5.053584 6.260115
0.000000 -5.305878 6.001560
0.000000 -6.072041 5.311299
0.000000 -1.501096 7.116093
-0.412423 -1.472040 6.456924
-7.087960 5.434801 0.099620
-2.628639 2.035898 3.848121
-3.198363 1.985815 3.796952
-3.775151 2.039402 3.646194
-4.465819 2.422950 3.155168
-2.164289 2.189867 3.851822
-3.208229 3.223926 4.115822
-2.673803 3.205337 4.092203
-3.745193 3.165286 3.972409
-4.161018 3.059069 3.719554
-5.062006 1.934418 2.776093
-2.244431 -7.432945 4.427406
-4.445859 2.663991 3.173422
-7.214530 2.263009 0.073150
-5.799793 2.349546 2.204059
-2.740439 -0.782513 4.591022
-0.627854 -3.437772 6.421077
-0.443535 -4.161234 6.289976
-1.080005 -3.793325 6.050428
-1.544725 -3.964783 5.512023
-0.910794 -4.244073 5.881854
-1.223049 -4.246658 5.315376
-2.174930 -4.897061 4.728490
-0.427049 -1.094134 7.360529
-0.496396 -0.475659 7.440358
-5.253307 3.881582 3.363159
-1.718698 0.974609 4.558359
-1.597458 -0.921743 5.814832
-1.642020 -0.593686 5.581839
-4.613672 -0.619315 3.580818
-0.478306 0.295766 7.101013
-3.734964 4.508230 4.550454
-4.588603 4.302037 4.048484
-6.279331 6.615427 1.425850
-1.220941 4.142165 5.106035
-2.193489 3.100317 4.000575
-2.222040 -4.339457 4.614452
-6.719682 -4.788645 -1.745401
-1.181585 -1.289770 5.743782
-0.624445 -1.625139 5.874008
-1.792481 -4.209751 4.972655
-1.712099 -4.128211 4.683734
-4.985894 4.802461 3.751977
-1.565493 -1.247143 5.481758
-2.644548 4.524654 4.921559
-2.760292 5.100971 5.015990
-3.523964 8.005976 3.729163
-5.599763 5.715470 2.724259
-3.063932 6.566144 4.529982
-5.720968 4.254584 2.830852
-6.374393 4.785590 1.591691
-0.593664 -3.851981 6.405810
-1.019069 -4.078904 5.954252
-1.316615 -4.194572 5.425213
-1.007285 -1.460251 5.677318
-1.718108 -4.172098 5.029336
-1.610106 -4.153744 5.105482
-1.693066 -4.099456 4.519315
-0.946825 -1.035179 6.512542
-1.147655 -4.180303 5.158567
-0.819033 -4.273517 5.807172
-0.372427 -4.230161 6.172388
-0.743564 -6.067639 5.180950
-0.738582 -5.203012 5.791821
-0.632924 -4.925837 6.057777
-0.556753 -4.584271 6.180245
-0.393737 -4.345134 6.141651
-1.150841 -4.245469 5.275298
-1.235761 -4.262495 5.357702
-1.353999 -4.289325 5.426107
-1.455925 -4.463832 5.377863
-2.005066 -3.406586 5.307523
-7.542244 -1.049282 -2.431321
0.000000 -1.735685 6.620749
-1.402137 -4.119013 4.918221
-1.483650 -4.113247 5.062407
-0.382790 -2.078769 5.997488
-1.359341 -1.755076 5.294518
-0.477996 -1.871069 5.957994
-2.342098 0.572670 4.294316
-3.323917 0.130948 4.126002
-1.703465 -0.889150 5.282038
-5.133204 7.485602 2.660442
-4.538641 6.319907 3.683424
-3.986562 5.109487 4.466315
-1.854110 -5.362910 4.897079
-1.395634 5.011963 5.316032
-1.619500 6.599217 4.921106
-1.891399 8.236377 4.274998
-4.195832 2.235205 3.375099
-5.733342 1.411738 2.431726
-1.859887 2.355757 3.843181
-4.988612 3.074654 3.083858
-1.303263 1.416453 4.831091
-1.305264 -0.671863 6.415987
-6.465170 0.937119 1.689873
-5.258659 0.945811 2.974312
-4.431754 0.724247 3.523100
-3.300681 0.861641 3.872784
-2.430178 1.131492 4.039035
-1.820731 1.467954 4.224124
-0.563221 2.307693 5.566789
-6.311395 -0.529322 1.883057
-5.587698 3.208071 2.687839
-0.242562 -1.462858 7.074819
-1.611038 0.339721 4.895433
-7.743095 2.364999 -2.005167
-1.391142 1.851048 4.448999
-1.754655 -0.950419 4.873887
-4.670959 2.664461 3.084075
-1.333712 -0.283281 6.097062
-7.270895 -2.890917 -2.252455
-1.856432 2.585245 3.757904
-0.923388 0.073076 6.671944
-4.826991 -6.116251 1.966962
-5.080467 -7.178393 0.717743
-7.159291 -0.811820 -0.072044
-5.705253 -5.245320 0.991884
-6.847258 3.662916 0.724695
-2.412942 -8.258853 4.119213
-0.178456 -1.701391 6.591008
-2.094000 -0.145155 4.567420
-6.407571 2.236021 1.560843
-3.670075 2.360153 3.635230
-3.177186 2.294265 3.775704
-1.739968 -4.278889 5.044873
-5.858154 -1.899791 1.748621
-1.292924 -9.295920 4.094062
-3.210651 -8.533278 2.802001
-4.063981 -7.992908 1.928237
0.000000 6.545390 5.027311
0.000000 -9.403378 4.264492
-2.724032 2.315802 3.777151
-2.288460 2.398891 3.697603
-1.998311 2.496547 3.689148
-6.130040 3.399261 2.038516
-2.288460 2.886504 3.775031
-2.724032 2.961810 3.871767
-3.177186 2.964136 3.876973
-3.670075 2.927714 3.724325
-4.018389 2.857357 3.482983
-7.555811 4.106811 -0.991917
-4.018389 2.483695 3.440898
0.000000 -3.209973 6.083134
-1.601205 -2.714638 5.550119
-1.215619 -1.170340 5.955221
-0.596614 -3.090736 5.989760
0.000000 3.271027 5.236015
-4.038587 -6.992043 2.732747
-3.279120 -7.661733 3.408767
-1.313701 -8.639995 4.702456
-5.940524 -6.223629 -0.631468
-1.998311 2.743838 3.744030
-0.901447 1.236992 5.754256
0.000000 -8.765243 4.891440
-2.308977 -8.974196 3.609070
-6.951860 -2.439855 -0.131004
-0.810260 -4.311770 5.777429
-0.991441 -4.471035 5.849972
-1.071312 -4.785379 5.753120
-1.180742 -4.925557 5.568540
-1.372639 -5.790007 5.026074
-1.504250 -4.103549 4.991342
-1.609578 -4.119514 5.132048
-1.700290 -4.061357 5.106884
-2.105290 -3.872156 4.920986
-4.800003 -2.492954 2.964966
-0.946709 1.907628 5.196779
-1.314173 3.104912 4.231404
-1.780000 2.860000 3.881555
-1.397488 -4.068277 4.901882
-5.095625 -3.579669 2.357545
-0.766444 3.182131 4.861453
-1.858707 -6.638397 4.670022
0.000000 1.059413 6.774605
-0.516573 1.583572 6.148363
0.000000 1.728369 6.316750
-1.246815 0.230297 5.681036
0.000000 -7.942195 5.189651
0.000000 -6.991511 5.226716
-0.996652 -6.930931 5.039464
-2.896144 -5.411845 4.223992
-2.023095 -1.713884 5.134589
-2.428571 -6.156625 4.435681
-3.505483 -1.563269 4.453165
-2.491248 -2.572825 5.099738
-3.665995 -3.044740 3.814069
-1.216972 -7.834466 4.976744
-1.538991 -0.130557 5.201198
-3.630728 -6.046227 3.499370
-2.923024 -6.842856 4.005028
-3.024380 -4.499746 4.182757
-5.625384 -3.169934 1.624987
-3.875817 -4.150352 3.444635
-6.554079 -3.940251 0.078944
-2.795835 -3.452109 4.397732
-1.255543 0.802341 5.307551
-1.125918 -0.933222 6.538796
-1.433060 -1.124217 5.907121
-0.923043 -0.529042 7.003423
-1.755386 3.529117 4.327696
-2.632589 3.713828 4.364629
-3.388062 3.721976 4.309028
-4.075766 3.675413 4.076063
-4.622910 3.474691 3.646321
-5.171755 2.535753 2.670867
-7.297331 0.763172 -0.048769
-4.706828 1.651000 3.109532
-4.071712 1.476821 3.476944
-3.269817 1.470659 3.731945
-2.527572 1.617311 3.865444
-1.970894 1.858505 3.961782
-1.579543 2.097941 4.084996
-7.664182 0.673132 -2.435867
-1.380263 -1.320893 5.640792
-0.884838 0.658740 6.233232
-0.767097 -0.968035 7.077932
-0.460117 -1.334107 6.790141
-0.748613 -1.067994 6.798409
-1.213760 -1.584179 5.500702
-0.387215 -1.409991 6.960788
-0.317825 -1.619009 6.522696
-1.639633 2.556298 3.863736
-1.255645 2.467144 4.203800
-1.031362 2.382663 4.615849
-4.253081 2.772296 3.315305
-4.530000 2.910000 3.339685
0.463928 0.955357 6.633583
4.253081 2.577646 3.279702
0.412423 -1.472040 6.456924
7.087960 5.434801 0.099620
2.628639 2.035898 3.848121
3.198363 1.985815 3.796952
3.775151 2.039402 3.646194
4.465819 2.422950 3.155168
2.164289 2.189867 3.851822
3.208229 3.223926 4.115822
2.673803 3.205337 4.092203
3.745193 3.165286 3.972409
4.161018 3.059069 3.719554
5.062006 1.934418 2.776093
2.244431 -7.432945 4.427406
4.445859 2.663991 3.173422
7.214530 2.263009 0.073150
5.799793 2.349546 2.204059
2.740439 -0.782513 4.591022
0.627854 -3.437772 6.421077
0.443535 -4.161234 6.289976
1.080005 -3.793325 6.050428
1.544725 -3.964783 5.512023
0.910794 -4.244073 5.881854
1.223049 -4.246658 5.315376
2.174930 -4.897061 4.728490
0.427049 -1.094134 7.360529
0.496396 -0.475659 7.440358
5.253307 3.881582 3.363159
1.718698 0.974609 4.558359
1.597458 -0.921743 5.814832
1.642020 -0.593686 5.581839
4.613672 -0.619315 3.580818
0.478306 0.295766 7.101013
3.734964 4.508230 4.550454
4.588603 4.302037 4.048484
6.279331 6.615427 1.425850
1.220941 4.142165 5.106035
2.193489 3.100317 4.000575
2.222040 -4.339457 4.614452
6.719682 -4.788645 -1.745401
1.181585 -1.289770 5.743782
0.624445 -1.625139 5.874008
1.792481 -4.209751 4.972655
1.712099 -4.128211 4.683734
4.985894 4.802461 3.751977
1.565493 -1.247143 5.481758
2.644548 4.524654 4.921559
2.760292 5.100971 5.015990
3.523964 8.005976 3.729163
5.599763 5.715470 2.724259
3.063932 6.566144 4.529982
5.720968 4.254584 2.830852
6.374393 4.785590 1.591691
0.593664 -3.851981 6.405810
1.019069 -4.078904 5.954252
1.316615 -4.194572 5.425213
1.007285 -1.460251 5.677318
1.718108 -4.172098 5.029336
1.610106 -4.153744 5.105482
1.693066 -4.099456 4.519315
0.946825 -1.035179 6.512542
1.147655 -4.180303 5.158567
0.819033 -4.273517 5.807172
0.372427 -4.230161 6.172388
0.743564 -6.067639 5.180950
0.738582 -5.203012 5.791821
0.632924 -4.925837 6.057777
0.556753 -4.584271 6.180245
0.393737 -4.345134 6.141651
1.150841 -4.245469 5.275298
1.235761 -4.262495 5.357702
1.353999 -4.289325 5.426107
1.455925 -4.463832 5.377863
2.005066 -3.406586 5.307523
7.542244 -1.049282 -2.431321
1.402137 -4.119013 4.918221
1.483650 -4.113247 5.062407
0.382790 -2.078769 5.997488
1.359341 -1.755076 5.294518
0.477996 -1.871069 5.957994
2.342098 0.572670 4.294316
3.323917 0.130948 4.126002
1.703465 -0.889150 5.282038
5.133204 7.485602 2.660442
4.538641 6.319907 3.683424
3.986562 5.109487 4.466315
1.854110 -5.362910 4.897079
1.395634 5.011963 5.316032
1.619500 6.599217 4.921106
1.891399 8.236377 4.274998
4.195832 2.235205 3.375099
5.733342 1.411738 2.431726
1.859887 2.355757 3.843181
4.988612 3.074654 3.083858
1.303263 1.416453 4.831091
1.305264 -0.671863 6.415987
6.465170 0.937119 1.689873
5.258659 0.945811 2.974312
4.431754 0.724247 3.523100
3.300681 0.861641 3.872784
2.430178 1.131492 4.039035
1.820731 1.467954 4.224124
0.563221 2.307693 5.566789
6.311395 -0.529322 1.883057
5.587698 3.208071 2.687839
0.242562 -1.462858 7.074819
1.611038 0.339721 4.895433
7.743095 2.364999 -2.005167
1.391142 1.851048 4.448999
1.754655 -0.950419 4.873887
4.670959 2.664461 3.084075
1.333712 -0.283281 6.097062
7.270895 -2.890917 -2.252455
1.856432 2.585245 3.757904
0.923388 0.073076 6.671944
4.826991 -6.116251 1.966962
5.080467 -7.178393 0.717743
7.159291 -0.811820 -0.072044
5.705253 -5.245320 0.991884
6.847258 3.662916 0.724695
2.412942 -8.258853 4.119213
0.178456 -1.701391 6.591008
2.094000 -0.145155 4.567420
6.407571 2.236021 1.560843
3.670075 2.360153 3.635230
3.177186 2.294265 3.775704
1.739968 -4.278889 5.044873
5.858154 -1.899791 1.748621
1.292924 -9.295920 4.094062
3.210651 -8.533278 2.802001
4.063981 -7.992908 1.928237
2.724032 2.315802 3.777151
2.288460 2.398891 3.697603
1.998311 2.496547 3.689148
6.130040 3.399261 2.038516
2.288460 2.886504 3.775031
2.724032 2.961810 3.871767
3.177186 2.964136 3.876973
3.670075 2.927714 3.724325
4.018389 2.857357 3.482983
7.555811 4.106811 -0.991917
4.018389 2.483695 3.440898
1.601205 -2.714638 5.550119
1.215619 -1.170340 5.955221
0.596614 -3.090736 5.989760
4.038587 -6.992043 2.732747
3.279120 -7.661733 3.408767
1.313701 -8.639995 4.702456
5.940524 -6.223629 -0.631468
1.998311 2.743838 3.744030
0.901447 1.236992 5.754256
2.308977 -8.974196 3.609070
6.951860 -2.439855 -0.131004
0.810260 -4.311770 5.777429
0.991441 -4.471035 5.849972
1.071312 -4.785379 5.753120
1.180742 -4.925557 5.568540
1.372639 -5.790007 5.026074
1.504250 -4.103549 4.991342
1.609578 -4.119514 5.132048
1.700290 -4.061357 5.106884
2.105290 -3.872156 4.920986
4.800003 -2.492954 2.964966
0.946709 1.907628 5.196779
1.314173 3.104912 4.231404
1.780000 2.860000 3.881555
1.397488 -4.068277 4.901882
5.095625 -3.579669 2.357545
0.766444 3.182131 4.861453
1.858707 -6.638397 4.670022
0.516573 1.583572 6.148363
1.246815 0.230297 5.681036
0.996652 -6.930931 5.039464
2.896144 -5.411845 4.223992
2.023095 -1.713884 5.134589
2.428571 -6.156625 4.435681
3.505483 -1.563269 4.453165
2.491248 -2.572825 5.099738
3.665995 -3.044740 3.814069
1.216972 -7.834466 4.976744
1.538991 -0.130557 5.201198
3.630728 -6.046227 3.499370
2.923024 -6.842856 4.005028
3.024380 -4.499746 4.182757
5.625384 -3.169934 1.624987
3.875817 -4.150352 3.444635
6.554079 -3.940251 0.078944
2.795835 -3.452109 4.397732
1.255543 0.802341 5.307551
1.125918 -0.933222 6.538796
1.433060 -1.124217 5.907121
0.923043 -0.529042 7.003423
1.755386 3.529117 4.327696
2.632589 3.713828 4.364629
3.388062 3.721976 4.309028
4.075766 3.675413 4.076063
4.622910 3.474691 3.646321
5.171755 2.535753 2.670867
7.297331 0.763172 -0.048769
4.706828 1.651000 3.109532
4.071712 1.476821 3.476944
3.269817 1.470659 3.731945
2.527572 1.617311 3.865444
1.970894 1.858505 3.961782
1.579543 2.097941 4.084996
7.664182 0.673132 -2.435867
1.380263 -1.320893 5.640792
0.884838 0.658740 6.233232
0.767097 -0.968035 7.077932
0.460117 -1.334107 6.790141
0.748613 -1.067994 6.798409
1.213760 -1.584179 5.500702
0.387215 -1.409991 6.960788
0.317825 -1.619009 6.522696
1.639633 2.556298 3.863736
1.255645 2.467144 4.203800
1.031362 2.382663 4.615849
4.253081 2.772296 3.315305
4.530000 2.910000 3.339685
