ply
format ascii 1.0
element vertex 468
property float x
property float y
property float z
end_header
-0.261350 -3.301337 5.793993
0.000000 -1.126865 7.475604
-0.057480 -2.065916 6.017466
-0.463928 0.955357 6.633583
0.000000 -0.463170 7.586580
0.000000 0.365669 7.242870
0.000000 2.473255 5.788627
-4.253081 2.577646 3.279702
0.000000 4.019042 5.284764
0.000000 4.885979 5.385258
0.000000 8.261778 4.481535
-0.320363 -3.578019 5.637522
-0.409228 -3.753784 5.278949
-0.491118 -3.796998 4.870873
-0.455438 -4.359305 5.081472
-0.414791 -4.578824 5.235027
-0.371947 -4.870038 5.337430
-0.338653 -5.228978 5.295055
-0.253436 -6.047738 4.891476
0.000000 -1.501095 7.112196
-0.419264 -1.465180 6.445415
-7.087960 5.434801 0.099620
-2.628639 2.035898 3.848121
-3.198363 1.985815 3.796952
-3.775151 2.039402 3.646194
-4.465819 2.422950 3.155168
-2.164289 2.189867 3.851822
-3.208229 3.223926 4.115822
-2.673803 3.205337 4.092203
-3.745193 3.165286 3.972409
-4.161018 3.059069 3.719554
-5.060032 1.935507 2.775601
-2.477092 -7.341170 4.240441
-4.445859 2.663991 3.173422
-7.214977 2.263098 0.073237
-5.800454 2.350063 2.204177
-2.905908 -0.688524 4.390058
-1.198222 -3.133665 5.531521
-1.278170 -3.654351 4.967822
-2.268749 -3.164394 4.901901
-3.072216 -3.323842 4.174416
-2.067357 -3.597415 4.524591
-2.741337 -3.600577 3.979429
-3.924347 -4.471102 3.228462
-0.427049 -1.094134 7.360529
-0.496396 -0.475659 7.440358
-5.253307 3.881582 3.363159
-1.718698 0.974609 4.558359
-1.608635 -0.942516 5.814193
-1.651267 -0.610868 5.581319
-4.842383 -0.595583 3.437048
-0.478306 0.295766 7.101013
-3.734964 4.508230 4.550454
-4.588603 4.302037 4.048484
-6.279331 6.615427 1.425850
-1.220941 4.142165 5.106035
-2.193489 3.100317 4.000575
-4.155339 -3.781638 3.168130
-6.719682 -4.788645 -1.745401
-1.193824 -1.306795 5.737747
-0.821604 -1.556792 5.768019
-3.881948 -3.731222 3.201684
-3.636155 -3.696328 3.075461
-4.985894 4.802461 3.751977
-1.592294 -1.257709 5.456949
-2.644548 4.524654 4.921559
-2.760292 5.100971 5.015990
-3.523964 8.005976 3.729163
-5.599763 5.715470 2.724259
-3.063932 6.566144 4.529982
-5.720968 4.254584 2.830852
-6.374393 4.785590 1.591691
-1.249922 -3.455974 5.328096
-2.139572 -3.435114 4.795242
-2.889647 -3.477335 4.151133
-1.043625 -1.464973 5.662455
-3.751502 -3.719628 3.172873
-3.413970 -3.911551 3.497699
-3.580568 -3.669011 2.951777
-0.946874 -1.035249 6.512274
-2.669906 -3.543743 3.722764
-1.997055 -3.598460 4.234833
-1.265288 -3.698999 4.618703
-1.273199 -5.892986 4.628500
-1.310349 -5.046320 5.014782
-1.314201 -4.690664 5.052118
-1.309966 -4.422123 4.967385
-1.288648 -4.234386 4.839136
-2.736765 -3.933504 3.866722
-2.815694 -3.985775 3.933491
-2.929617 -4.128064 3.972175
-3.032313 -4.340907 3.944942
-3.402463 -2.665395 4.099119
-7.542244 -1.049282 -2.431321
0.000000 -1.724003 6.601390
-3.169566 -3.841575 3.391565
-3.277308 -3.850834 3.484068
-0.757547 -1.949321 5.752809
-1.405627 -1.714196 5.241087
-0.789182 -1.768372 5.773801
-2.342340 0.572222 4.294303
-3.328309 0.114717 4.111854
-1.726175 -0.919165 5.273355
-5.133204 7.485602 2.660442
-4.538641 6.319907 3.683424
-3.986562 5.109487 4.466315
-3.271906 -4.989521 3.641611
-1.395634 5.011963 5.316032
-1.619500 6.599217 4.921106
-1.891399 8.236377 4.274998
-4.195832 2.235205 3.375099
-5.734527 1.424786 2.424900
-1.859887 2.355757 3.843181
-4.988612 3.074654 3.083858
-1.303263 1.416453 4.831091
-1.305757 -0.672779 6.415959
-6.503804 0.977409 1.630168
-5.265456 0.971986 2.959929
-4.431634 0.741465 3.516310
-3.301258 0.864182 3.872331
-2.430178 1.131492 4.039035
-1.820731 1.467954 4.224124
-0.563221 2.307693 5.566789
-6.539898 -0.289011 1.552217
-5.587698 3.208071 2.687839
-0.242624 -1.462857 7.071491
-1.611251 0.339326 4.895421
-7.743095 2.364999 -2.005167
-1.391142 1.851048 4.448999
-1.785794 -0.978284 4.850470
-4.670959 2.664461 3.084075
-1.333970 -0.283761 6.097047
-7.270895 -2.890917 -2.252455
-1.856432 2.585245 3.757904
-0.923388 0.073076 6.671944
-5.020048 -6.121352 1.854376
-5.085276 -7.178590 0.714711
-7.275596 -0.687623 -0.281212
-5.883422 -5.199695 0.851685
-6.847258 3.662916 0.724695
-2.423435 -8.254635 4.111764
-0.181541 -1.689208 6.572142
-2.103713 -0.163923 4.566078
-6.410577 2.237324 1.561410
-3.670075 2.360153 3.635230
-3.177186 2.294265 3.775704
-3.558143 -4.029434 3.451726
-6.572476 -1.524187 1.085636
-1.292924 -9.295920 4.094062
-3.210651 -8.533278 2.802001
-4.068926 -7.993109 1.925119
0.000000 6.545390 5.027311
0.000000 -9.403378 4.264492
-2.724032 2.315802 3.777151
-2.288460 2.398891 3.697603
-1.998311 2.496547 3.689148
-6.130040 3.399261 2.038516
-2.288460 2.886504 3.775031
-2.724032 2.961810 3.871767
-3.177186 2.964136 3.876973
-3.670075 2.927714 3.724325
-4.018389 2.857357 3.482983
-7.555811 4.106811 -0.991917
-4.018389 2.483695 3.440898
-0.139242 -2.465967 5.833427
-2.501083 -2.389907 4.697097
-1.222237 -1.182444 5.952465
-1.058411 -2.405256 5.583288
0.000000 3.271027 5.236015
-4.197695 -6.971539 2.627643
-3.377202 -7.634526 3.336546
-1.313701 -8.639995 4.702456
-5.940524 -6.223629 -0.631468
-1.998311 2.743838 3.744030
-0.901447 1.236992 5.754256
0.000000 -8.765243 4.891440
-2.308977 -8.974196 3.609070
-7.101894 -2.249849 -0.403041
-2.057526 -4.073299 4.439921
-2.137836 -4.195304 4.510151
-2.196088 -4.409870 4.569518
-2.234102 -4.741066 4.559765
-2.375353 -5.486134 4.169471
-3.322951 -3.610765 3.401642
-3.485041 -3.562084 3.523520
-3.651545 -3.471864 3.546995
-4.126925 -3.092749 3.488845
-5.601961 -1.857194 2.368463
-0.946709 1.907628 5.196779
-1.314173 3.104912 4.231404
-1.780000 2.860000 3.881555
-3.208329 -3.528607 3.223410
-5.438891 -3.740853 1.696637
-0.766444 3.182131 4.861453
-2.482355 -6.395817 4.135123
0.000000 1.059413 6.774605
-0.516573 1.583572 6.148363
0.000000 1.728369 6.316750
-1.246815 0.230297 5.681036
0.000000 -7.942194 5.181172
-0.066464 -6.964779 5.106300
-1.255724 -6.827242 4.796514
-4.160880 -4.902795 3.173237
-2.666592 -1.415959 4.337888
-3.463864 -5.793211 3.526313
-4.069378 -1.395361 3.940510
-3.638709 -1.965308 3.927233
-4.955030 -2.299070 3.073920
-1.255922 -7.818936 4.941867
-1.542374 -0.136843 5.201008
-4.348521 -5.844091 2.941935
-3.478110 -6.651418 3.534471
-4.603276 -3.923616 3.106568
-6.379187 -2.773570 0.704104
-5.082264 -3.916779 2.692437
-6.675635 -3.807033 -0.092789
-4.503027 -2.673761 3.427924
-1.255543 0.802341 5.307551
-1.126122 -0.933602 6.538785
-1.443109 -1.142774 5.905127
-0.923043 -0.529042 7.003423
-1.755386 3.529117 4.327696
-2.632589 3.713828 4.364629
-3.388062 3.721976 4.309028
-4.075766 3.675413 4.076063
-4.622910 3.474691 3.646321
-5.171740 2.535753 2.670864
-7.321666 0.779960 -0.078567
-4.703795 1.653788 3.108432
-4.070456 1.478599 3.476295
-3.269817 1.470659 3.731945
-2.527572 1.617311 3.865444
-1.970894 1.858505 3.961782
-1.579543 2.097941 4.084996
-7.664182 0.673132 -2.435867
-1.397041 -1.340139 5.630378
-0.884838 0.658740 6.233232
-0.767097 -0.968035 7.077932
-0.460213 -1.334106 6.787447
-0.748618 -1.067994 6.798303
-1.236408 -1.585568 5.480490
-0.387306 -1.409990 6.957705
-0.324115 -1.606247 6.505702
-1.639633 2.556298 3.863736
-1.255645 2.467144 4.203800
-1.031362 2.382663 4.615849
-4.253081 2.772296 3.315305
-4.530000 2.910000 3.339685
0.463928 0.955357 6.633583
4.253081 2.577646 3.279702
0.416106 -1.466449 6.447657
7.087960 5.434801 0.099620
2.628639 2.035898 3.848121
3.198363 1.985815 3.796952
3.775151 2.039402 3.646194
4.465819 2.422950 3.155168
2.164289 2.189867 3.851822
3.208229 3.223926 4.115822
2.673803 3.205337 4.092203
3.745193 3.165286 3.972409
4.161018 3.059069 3.719554
5.062006 1.934418 2.776093
2.266659 -7.425768 4.389812
4.445859 2.663991 3.173422
7.214530 2.263009 0.073150
5.799793 2.349546 2.204059
2.844939 -0.720868 4.433130
0.622528 -3.293606 5.813924
0.389318 -3.837439 5.291093
1.420711 -3.496570 5.488449
1.914910 -3.803146 5.028930
1.038350 -3.936673 5.123852
1.538118 -4.072540 4.824213
2.650112 -5.003649 4.188483
0.427049 -1.094134 7.360529
0.496396 -0.475659 7.440358
5.253307 3.881582 3.363159
1.718698 0.974609 4.558359
1.608635 -0.942516 5.814193
1.651267 -0.610868 5.581319
4.765501 -0.701554 3.534632
0.478306 0.295766 7.101013
3.734964 4.508230 4.550454
4.588603 4.302037 4.048484
6.279331 6.615427 1.425850
1.220941 4.142165 5.106035
2.193489 3.100317 4.000575
3.102642 -4.352984 4.095905
6.719682 -4.788645 -1.745401
1.193824 -1.306795 5.737747
0.729766 -1.593712 5.833208
2.456206 -4.342621 4.283884
2.204823 -4.304508 4.162499
4.985894 4.802461 3.751977
1.592294 -1.257709 5.456949
2.644548 4.524654 4.921559
2.760292 5.100971 5.015990
3.523964 8.005976 3.729163
5.599763 5.715470 2.724259
3.063932 6.566144 4.529982
5.720968 4.254584 2.830852
6.374393 4.785590 1.591691
0.532152 -3.631502 5.638019
1.218581 -3.770011 5.386561
1.728363 -3.951083 4.997605
1.043625 -1.464973 5.662455
2.321234 -4.329069 4.258156
2.056846 -4.477671 4.520883
2.153084 -4.276322 4.038093
0.946874 -1.035249 6.512274
1.422614 -4.017650 4.571888
0.882303 -3.932750 4.825871
0.243688 -3.876744 4.932541
0.692589 -6.064386 4.931133
0.555388 -5.233872 5.345934
0.497354 -4.880489 5.387285
0.423531 -4.611716 5.302142
0.336979 -4.418990 5.165082
1.504586 -4.410107 4.722341
1.596117 -4.468110 4.799802
1.722526 -4.616056 4.849830
1.838125 -4.828546 4.823383
2.368250 -3.106237 4.868096
7.542244 -1.049282 -2.431321
1.822337 -4.397811 4.395985
1.929379 -4.411759 4.496925
0.590447 -2.010874 5.861490
1.405627 -1.714196 5.241087
0.662367 -1.819288 5.863701
2.342340 0.572222 4.294303
3.327324 0.104863 4.113860
1.726175 -0.919165 5.273355
5.133204 7.485602 2.660442
4.538641 6.319907 3.683424
3.986562 5.109487 4.466315
2.169681 -5.440433 4.455874
1.395634 5.011963 5.316032
1.619500 6.599217 4.921106
1.891399 8.236377 4.274998
4.195832 2.235205 3.375099
5.733342 1.411738 2.431726
1.859887 2.355757 3.843181
4.988612 3.074654 3.083858
1.303263 1.416453 4.831091
1.305757 -0.672779 6.415959
6.465170 0.937119 1.689873
5.258659 0.945811 2.974312
4.432338 0.722096 3.522615
3.300681 0.861641 3.872784
2.430178 1.131492 4.039035
1.820731 1.467954 4.224124
0.563221 2.307693 5.566789
6.338145 -0.529279 1.881175
5.587698 3.208071 2.687839
0.242624 -1.462857 7.071491
1.611251 0.339326 4.895421
7.743095 2.364999 -2.005167
1.391142 1.851048 4.448999
1.785794 -0.978284 4.850470
4.670959 2.664461 3.084075
1.333970 -0.283761 6.097047
7.270895 -2.890917 -2.252455
1.856432 2.585245 3.757904
0.923388 0.073076 6.671944
5.000589 -6.135128 1.892523
5.085276 -7.178590 0.714711
7.159291 -0.811820 -0.072044
5.843051 -5.248023 0.924091
6.847258 3.662916 0.724695
2.412942 -8.258853 4.119213
0.179909 -1.689864 6.573301
2.103655 -0.163946 4.566119
6.407571 2.236021 1.560843
3.670075 2.360153 3.635230
3.177186 2.294265 3.775704
2.196121 -4.598322 4.479786
6.234883 -1.944430 1.663542
1.292924 -9.295920 4.094062
3.210651 -8.533278 2.802001
4.068926 -7.993109 1.925119
2.724032 2.315802 3.777151
2.288460 2.398891 3.697603
1.998311 2.496547 3.689148
6.130040 3.399261 2.038516
2.288460 2.886504 3.775031
2.724032 2.961810 3.871767
3.177186 2.964136 3.876973
3.670075 2.927714 3.724325
4.018389 2.857357 3.482983
7.555811 4.106811 -0.991917
4.018389 2.483695 3.440898
1.776217 -2.683946 5.213116
1.222237 -1.182444 5.952465
0.701480 -2.524618 5.794039
4.135272 -6.996638 2.671970
3.311811 -7.660815 3.382963
1.313701 -8.639995 4.702456
5.940524 -6.223629 -0.631468
1.998311 2.743838 3.744030
0.901447 1.236992 5.754256
2.308977 -8.974196 3.609070
6.954154 -2.439843 -0.131163
0.989219 -4.414727 5.042930
1.099293 -4.547098 5.131478
1.198361 -4.764802 5.196267
1.288842 -5.091936 5.179284
1.544624 -5.818683 4.756640
1.953738 -4.183886 4.431702
2.117802 -4.137093 4.555096
2.285339 -4.051196 4.582438
2.850160 -3.665720 4.484994
5.278538 -2.238942 2.861224
0.946709 1.907628 5.196779
1.314173 3.104912 4.231404
1.780000 2.860000 3.881555
1.841790 -4.097545 4.244907
5.436187 -4.030482 2.109852
0.766444 3.182131 4.861453
1.938616 -6.614410 4.521084
0.516573 1.583572 6.148363
1.246815 0.230297 5.681036
0.997827 -6.930921 4.979576
3.288807 -5.382514 3.795752
2.311631 -1.566237 4.590085
2.680250 -6.111567 4.096151
3.832928 -1.537326 4.137731
2.961860 -2.274215 4.440943
4.386901 -2.683286 3.643886
1.217295 -7.834465 4.969285
1.542374 -0.136843 5.201008
3.878377 -6.041764 3.311079
3.084037 -6.809842 3.814195
3.747321 -4.503545 3.726453
6.094129 -3.205991 1.473482
4.588995 -4.728726 2.983221
6.583231 -3.941269 0.070268
3.492580 -3.195820 4.130198
1.255543 0.802341 5.307551
1.126122 -0.933602 6.538785
1.443109 -1.142774 5.905127
0.923043 -0.529042 7.003423
1.755386 3.529117 4.327696
2.632589 3.713828 4.364629
3.388062 3.721976 4.309028
4.075766 3.675413 4.076063
4.622910 3.474691 3.646321
5.171755 2.535753 2.670867
7.297331 0.763172 -0.048769
4.706828 1.651000 3.109532
4.071712 1.476821 3.476944
3.269817 1.470659 3.731945
2.527572 1.617311 3.865444
1.970894 1.858505 3.961782
1.579543 2.097941 4.084996
7.664182 0.673132 -2.435867
1.397041 -1.340139 5.630378
0.884838 0.658740 6.233232
0.767097 -0.968035 7.077932
0.460213 -1.334106 6.787447
0.748618 -1.067994 6.798303
1.236408 -1.585568 5.480490
0.387306 -1.409990 6.957705
0.319925 -1.607931 6.508676
1.639633 2.556298 3.863736
1.255645 2.467144 4.203800
1.031362 2.382663 4.615849
4.253081 2.772296 3.315305
4.530000 2.910000 3.339685
